# xmcd
#
# Track frame offsets:
# 182
# 16995
# 32307
# 48730
# 60962
# 74212
# 85627
# 101922
# 117702
# 127725
# 140947
# 158130
# 172767
# 190052
# 202725
# 220725
#
# Disc length: 3167 seconds
#
#
# Revision: 0
# Processed by: cddbd v1.5PL3 Copyright (c) Steve Scherf et al.
# Submitted via: FreeRIP 2.35 
#
DISCID=db0c5d10
DTITLE=Misc - Hollandse Country Songs
DYEAR=1900
DGENRE=Country
TTITLE0=Koel Helder water
TTITLE1=Ver in de Bergen
TTITLE2=Er hangt een paardehoofdstel aan de muur
TTITLE3=Rosemarie uit Billy's bar
TTITLE4=Blonde Bill
TTITLE5=Eenzaam zijn de lange nachten
TTITLE6='s Avonds als het kampvuur brandt
TTITLE7=Bonanza
TTITLE8=Wij zijn twee eenzame cowboys
TTITLE9=Hillebilly Country Lilly
TTITLE10=De Boer is een Keerl
TTITLE11=Achterhoek Boogie
TTITLE12=Marie AN
TTITLE13=Zundags bal
TTITLE14=Een Karavaan
TTITLE15=Riders in the sky
EXTD=
EXTT0=
EXTT1=
EXTT2=
EXTT3=
EXTT4=
EXTT5=
EXTT6=
EXTT7=
EXTT8=
EXTT9=
EXTT10=
EXTT11=
EXTT12=
EXTT13=
EXTT14=
EXTT15=
PLAYORDER=
